<svg id="Capa_1" enable-background="new 0 0 512.002 512.002" height="512" viewBox="0 0 512.002 512.002" width="512" xmlns="http://www.w3.org/2000/svg"><g><path d="m330.174 38.5c.399.063.796.094 1.188.094 3.623 0 6.811-2.631 7.398-6.322l3.753-23.591c.65-4.091-2.139-7.935-6.229-8.586-4.096-.653-7.936 2.139-8.586 6.229l-3.753 23.591c-.65 4.09 2.139 7.934 6.229 8.585zm14.012 17.955c1.483 1.746 3.594 2.644 5.719 2.644 1.717 0 3.442-.586 4.853-1.785l20.191-17.159c3.156-2.683 3.541-7.415.858-10.571-2.681-3.156-7.415-3.541-10.571-.858l-20.191 17.159c-3.157 2.682-3.542 7.414-.859 10.57zm22.576 8.804c-4.127 0-7.481 3.337-7.499 7.469-.018 4.142 3.326 7.514 7.469 7.531l23.887.101h.032c4.127 0 7.481-3.337 7.499-7.469.018-4.142-3.326-7.514-7.469-7.531l-23.887-.101zm137.739 431.743h-128.342c.218-1.135.342-2.303.342-3.5v-15c0-10.201-8.299-18.5-18.5-18.5h-.968l-23.046-236.025c9.975-.261 18.014-8.438 18.014-18.475v-15c0-10.201-8.299-18.5-18.5-18.5h-2.159v-52.106h15.069c5.425 0 10.066-3.316 11.825-8.448 1.758-5.132.126-10.598-4.158-13.925l-75.577-58.693v-16.328c0-12.406-10.094-22.5-22.5-22.5s-22.5 10.094-22.5 22.5v16.328l-75.576 58.693c-4.285 3.327-5.917 8.793-4.159 13.925 1.759 5.132 6.4 8.448 11.825 8.448h15.069v52.106h-6.159c-10.201 0-18.5 8.299-18.5 18.5v15c0 10.201 8.299 18.5 18.5 18.5h3.512l-21.472 219.905c-14.555-3.294-28.946-4.314-46.73 1.855-3.913 1.358-5.984 5.632-4.626 9.545 1.357 3.913 5.625 5.986 9.544 4.626 20.012-6.942 35.191-2.632 54.408 2.826 17.553 4.985 37.447 10.637 65.92 9.896 12.005-.312 21.73-1.699 29.545-2.813 13.968-1.993 21.662-3.092 30.493 2.377 7.886 4.882 13.705 13.202 17.369 24.782h-227.858c.1-6.416 1.587-13.995 6.466-21 .959-1.374 2.007-2.645 3.206-3.886 2.878-2.979 2.795-7.728-.184-10.605-2.98-2.878-7.728-2.796-10.605.184-1.758 1.82-3.302 3.693-4.723 5.73-5.851 8.399-8.988 18.679-9.146 29.577h-62.119c-4.143 0-7.5 3.357-7.5 7.5s3.357 7.5 7.5 7.5h497c4.143 0 7.5-3.357 7.5-7.5s-3.357-7.499-7.5-7.499zm-256-474.5c0-4.136 3.364-7.5 7.5-7.5s7.5 3.364 7.5 7.5v12.5h-15zm-75.615 82.394 70.686-54.894h24.859l70.686 54.894h-25.115c-4.143 0-7.5 3.357-7.5 7.5s3.357 7.5 7.5 7.5h2.341v52.106h-31.289v-21.606c0-8.547-6.953-15.5-15.5-15.5h-27.104c-8.547 0-15.5 6.953-15.5 15.5v21.606h-31.29v-52.106h88.341c4.143 0 7.5-3.357 7.5-7.5s-3.357-7.5-7.5-7.5zm97.167 45.5v21.606h-28.104v-21.606c0-.275.225-.5.5-.5h27.104c.275 0 .5.224.5.5zm-95.552 58.606c-1.93 0-3.5-1.57-3.5-3.5v-15c0-1.93 1.57-3.5 3.5-3.5h159c1.93 0 3.5 1.57 3.5 3.5v15c0 1.93-1.57 3.5-3.5 3.5zm147.93 50.981-139.694 69.995 10.348-105.977h125.832zm-141.416 87.635 142.978-71.641 6.816 69.808-157.312 78.823zm122.785 112.384c-.271-.176-.534-.365-.809-.536-13.457-8.333-25.393-6.632-40.509-4.473-7.817 1.115-16.679 2.379-27.815 2.669-26.162.665-44.91-4.639-61.432-9.332-.669-.19-1.335-.379-2-.567l.539-5.515 160.596-80.469 9.591 98.223zm57.701 33.5c0 1.93-1.57 3.5-3.5 3.5h-29.944c-2.217-8.487-5.353-15.832-9.388-22h39.332c1.93 0 3.5 1.57 3.5 3.5zm-240.149-413.143h.032l23.887-.101c4.143-.018 7.486-3.39 7.469-7.531-.018-4.132-3.372-7.469-7.499-7.469h-.032l-23.887.101c-4.143.018-7.486 3.39-7.469 7.531.017 4.133 3.372 7.469 7.499 7.469zm15.702-40.205 20.191 17.159c1.41 1.199 3.136 1.785 4.853 1.785 2.125 0 4.235-.897 5.719-2.644 2.683-3.156 2.298-7.889-.858-10.571l-20.191-17.159c-3.155-2.683-7.889-2.298-10.571.858s-2.299 7.89.857 10.572zm36.188-7.882c.588 3.691 3.775 6.322 7.398 6.322.392 0 .788-.03 1.188-.094 4.09-.651 6.879-4.495 6.229-8.586l-3.753-23.591c-.651-4.091-4.487-6.876-8.586-6.229-4.09.651-6.879 4.495-6.229 8.586z"/></g></svg>