<svg id="Capa_1" enable-background="new 0 0 512 512" height="512" viewBox="0 0 512 512" width="512" xmlns="http://www.w3.org/2000/svg"><g><path d="m482 378.185c0-4.142-3.358-7.5-7.5-7.5h-1.685l-18.562-30.123c-4.58-7.432-13.845-10.621-22.027-7.583l-18.551 6.885c-.61.227-1.269.271-1.904.129l-18.541-4.135c-3.707-.825-7.519-.495-11.026.958l-21.654 8.97c-4.947 2.049-8.744 6.141-10.417 11.227-1.491 4.528-1.148 9.417.892 13.672h-8.35c-4.142 0-7.5 3.358-7.5 7.5s3.358 7.5 7.5 7.5h131.825c4.142 0 7.5-3.358 7.5-7.5zm-113.575-7.5-3.73-6.192c-.693-1.151-.495-2.242-.314-2.79.18-.548.668-1.544 1.91-2.058l21.654-8.97c.643-.266 1.342-.327 2.021-.175l18.541 4.135c3.467.772 7.059.528 10.387-.708l18.55-6.884c1.503-.556 3.2.028 4.039 1.39l13.712 22.253h-86.77zm136.075 60h-56.825c-4.142 0-7.5 3.358-7.5 7.5s3.358 7.5 7.5 7.5h56.825c4.142 0 7.5-3.358 7.5-7.5s-3.358-7.5-7.5-7.5zm-278.744 0h-4.531l-2.437-22.559c-.409-3.784-2.13-7.337-4.846-10.003l-17.53-17.208c-5-4.907-12.578-6.121-18.861-3.021l-27.069 13.359c-2.48 1.224-4.63 3.069-6.217 5.336l-5.257 7.513c-.439.627-1.276.824-1.948.457l-9.036-4.932c-4.745-2.588-10.462-2.689-15.295-.269-4.833 2.421-8.175 7.061-8.942 12.41l-2.712 18.916h-7.145c-4.142 0-7.5 3.358-7.5 7.5s3.358 7.5 7.5 7.5h131.826c4.142 0 7.5-3.358 7.5-7.5s-3.358-7.499-7.5-7.499zm-109.528 0 2.407-16.787c.092-.642.493-.967.813-1.127s.821-.287 1.391.024l9.036 4.932c7.389 4.032 16.598 1.872 21.423-5.024l5.257-7.513c.145-.206.34-.374.566-.485l27.069-13.359c.57-.282 1.26-.172 1.714.275l17.53 17.208c.247.242.403.565.44.909l2.263 20.948h-89.909zm207.149-101.276h-28.289c-4.142 0-7.5 3.358-7.5 7.5s3.358 7.5 7.5 7.5h28.289c4.142 0 7.5-3.358 7.5-7.5s-3.357-7.5-7.5-7.5zm50.302-41.384c4.142 0 7.5-3.358 7.5-7.5s-3.358-7.5-7.5-7.5h-56.621l-.229-12.054c-.015-.8.358-1.565.998-2.046l18.884-14.186c5.318-3.995 7.936-10.796 6.668-17.326l-8.291-42.721 3.975-25.77 36.275 37.788 31.856 44.35c2.43 3.384 6.153 5.239 10.059 5.239 1.553 0 3.135-.293 4.676-.9 5.417-2.134 8.558-7.447 7.816-13.222l-2.355-18.342 47.471 59.189h-71.182c-4.142 0-7.5 3.358-7.5 7.5s3.358 7.5 7.5 7.5h100.821c4.142 0 7.5-3.358 7.5-7.5s-3.358-7.5-7.5-7.5h-10.412l-67.326-83.945c-1.49-1.928-5.37-4.504-9.751-4.678h-32.698l-38.956-40.581c-2.357-2.414-7.56-5.497-12.625-5.381h-22.418c-.678 0-1.335-.28-1.804-.769l-63.924-66.59c-2.908-3.029-6.983-4.766-11.182-4.766-2.564.089-7.983 1.196-11.182 4.766l-42.554 44.328-36.756 12.471c-5.639 1.913-10.272 6.126-12.71 11.561l-18.925 42.192c-.914 2.038-2.78 3.448-4.99 3.771l-30.708 4.49c-5.538.81-10.376 4.019-13.276 8.806l-45.021 74.325h-9.782c-4.142 0-7.5 3.358-7.5 7.5s3.358 7.5 7.5 7.5h366.179zm36.734-88.624 3.193 24.876-17.868-24.876zm-100.774-45.996c.225.009 15.091.035 15.091.035l-4.48 29.051c-.256 1.657-.224 3.331.096 4.974l8.308 42.807c.181.933-.193 1.904-.953 2.475l-18.884 14.186c-4.481 3.366-7.092 8.721-6.986 14.323l.223 11.77h-50.423l6.478-5.65c3.098-2.702 4.908-6.608 4.968-10.718l.366-25.246 24.827-17.028c4.445-3.048 6.822-8.268 6.203-13.622l-2.127-18.415zm-75.367-71.408 61.982 64.566-16.783 28.089c-1.69 2.754-2.416 6.039-2.045 9.247l2.113 18.284-24.792 17.004c-3.875 2.658-6.23 7.05-6.297 11.748l-.366 25.281-19.272 16.808h-91.799l-.793-22.232 21.602-8.074c4.834-1.808 8.022-6.311 8.12-11.473l.58-30.758 33.384-17.147c3.453-1.774 5.961-4.928 6.915-8.681zm-159.139 124.475c.571-.943 1.525-1.576 2.616-1.736l30.709-4.49c7.312-1.07 13.481-5.733 16.505-12.475l18.924-42.191c.737-1.643 2.138-2.917 3.843-3.495l38.49-13.06c1.139-.386 2.168-1.041 3.001-1.908l23.197-24.164-19.952 67.344-34.129 17.53c-4.1 2.105-6.7 6.276-6.787 10.884l-.576 30.553-21.696 8.109c-5.046 1.886-8.307 6.771-8.115 12.155l.839 23.497h-87.182zm45.744 130.437c0-4.142-3.358-7.5-7.5-7.5h-88.289c-4.142 0-7.5 3.358-7.5 7.5s3.358 7.5 7.5 7.5h88.289c4.143 0 7.5-3.358 7.5-7.5zm24.211-7.5c-4.142 0-7.5 3.358-7.5 7.5s3.358 7.5 7.5 7.5h13.289c4.142 0 7.5-3.358 7.5-7.5s-3.358-7.5-7.5-7.5z"/></g></svg>