<svg id="Capa_1" enable-background="new 0 0 511.855 511.855" height="512" viewBox="0 0 511.855 511.855" width="512" xmlns="http://www.w3.org/2000/svg"><g><path d="m241.23 310.152c11.436 5.462 25.028 11.032 46.864 14.764 11.485 1.963 20.899 2.641 29.273 2.641 7.627 0 14.391-.563 21.067-1.228 4.122-.411 7.13-4.085 6.719-8.207-.411-4.121-4.086-7.132-8.207-6.719-13.437 1.338-26.196 2.168-46.325-1.272-20.03-3.424-32.468-8.518-42.926-13.514-3.738-1.787-8.215-.203-10 3.535-1.784 3.738-.202 8.215 3.535 10zm263.124 54.658h-86.159v-41.276c21.684 1.249 51.915 4.483 84.356 12.519.606.15 1.212.222 1.809.222 3.367 0 6.428-2.284 7.274-5.699.996-4.021-1.456-8.087-5.477-9.083-32.466-8.041-62.756-11.428-84.958-12.805 5.092-1.326 9.944-3.482 14.592-7.021 11.068-8.43 16.469-20.947 18.197-31.233.665-.22 1.307-.472 1.902-.786 4.133-2.178 6.271-6.371 5.718-11.216-2.89-25.364-8.646-48.53-14.436-69.785-9.826-36.07-22.59-70.787-37.939-103.187-4.019-8.479-11.587-13.542-20.247-13.542-8.679 0-16.501 5.323-20.414 13.893-14.813 32.439-27.311 67-37.148 102.722-2.173 7.893-1.416 15.992 2.094 23.111-3.603 14.813-6.813 29.97-9.517 45.127-3.448 19.321 4.302 37.685 19.283 45.696 12.722 6.803 31.74 8.231 45.454 8.231 1.955 0 13.2.038 14.457.018v54.096h-21.5v-27.444c0-4.142-3.358-7.5-7.5-7.5s-7.5 3.358-7.5 7.5v27.444h-54.958c-21.081 0-41.415 6.303-58.803 18.229-3.416 2.343-4.286 7.011-1.943 10.427 1.454 2.12 3.802 3.259 6.192 3.259 1.461 0 2.938-.426 4.235-1.315 14.88-10.205 32.28-15.599 50.319-15.599h192.617c4.142 0 7.5-3.358 7.5-7.5s-3.358-7.503-7.5-7.503zm-158.468-172.297c9.626-34.955 21.85-68.759 36.331-100.473 1.443-3.161 4.037-5.124 6.77-5.124 2.758 0 5.197 1.81 6.692 4.964 14.971 31.603 27.427 65.485 37.021 100.707 6.115 22.448 10.785 42.012 13.502 63.37-10.786-1.481-19.553-11.514-22.75-21.494-9.897-37.562-26.609-40.241-55.501-19.73-10.392 7.378-25.657-7.772-22.065-22.22zm4.471 96.724c-9.09-4.861-13.856-17.129-11.589-29.833 2.038-11.425 4.369-22.851 6.938-34.123 3.35 2.178 7.039 3.753 10.848 4.565 14.128 3.013 23.148-3.912 29.736-8.969 4.419-3.392 7.047-5.29 9.66-4.877 5.718.904 7.195 3.814 10.559 14.896 2.879 9.485 6.463 21.29 17.846 31.154 3.288 2.849 8.634 5.615 14.302 7.397.092.029.177.048.269.076-1.416 6.851-5.479 14.342-12.224 20.21-10.521 9.15-65.529 5.967-76.345-.496zm-64.517 149.369c-19.395-28.269-51.44-45.146-85.722-45.146h-29.098v-42.642c10.349-1.115 19.663-3.888 28.554-10.659 14.48-11.028 21.254-27.275 23.123-40.737 1.237-.298 2.389-.704 3.426-1.25 4.527-2.386 6.866-7.005 6.256-12.355-3.753-32.948-11.241-63.077-18.773-90.727-12.788-46.943-29.398-92.121-49.371-134.281-4.856-10.247-13.96-16.364-24.354-16.364-10.419 0-19.83 6.435-24.56 16.792-19.279 42.22-35.547 87.206-48.354 133.709-2.757 10.014-1.699 20.293 2.937 29.249-4.772 19.544-9.005 39.573-12.578 59.596-3.987 22.348 3.907 43.63 19.802 54.641-21.507 1.921-45.063-.219-67.647-6.395-3.992-1.092-8.12 1.26-9.213 5.256s1.26 8.12 5.256 9.213c18.507 5.062 37.682 7.604 56.088 7.604 15.408 0 30.262-1.803 43.74-5.383 3.898.713 8.036 1.294 12.416 1.732v43.002h-110.266c-4.142 0-7.5 3.358-7.5 7.5s3.358 7.5 7.5 7.5h192.617c29.335 0 56.757 14.442 73.353 38.631l11.705 17.062c1.454 2.119 3.802 3.258 6.191 3.258 1.462 0 2.939-.426 4.236-1.316 3.416-2.343 4.285-7.012 1.942-10.427zm-204.411-239.678c12.595-45.735 28.589-89.965 47.537-131.46 2.26-4.949 6.443-8.023 10.916-8.023 4.518 0 8.454 2.838 10.799 7.787 19.595 41.363 35.896 85.707 48.453 131.8 8.286 30.417 14.547 56.799 18.049 85.977-17.065-1.531-28.461-14.193-33.421-27.241-7.322-22.435-14.835-55.251-47.955-41.719-9.007 4.65-15.536 13.14-25.196 15.386-18.392 3.434-34.236-14.752-29.182-32.507zm74.591 194.532h-23.252v-42.086c2.224.06 22.479.162 23.252.157zm7.5-57.099c-.018 0-.036.003-.054.003-4.917.226-21.317.111-23.91.111-22.505 0-40.676-3.089-51.165-8.698-12.726-6.805-19.428-23.81-16.298-41.352 2.869-16.076 6.169-32.156 9.836-47.977 4.821 3.691 10.349 6.34 16.105 7.568 17.404 3.712 28.692-4.955 36.936-11.283 6.263-4.808 10.015-7.497 14.355-6.809 9.299 1.47 11.506 7.51 15.612 21.034 3.672 12.097 8.243 27.152 22.598 39.592 4.005 3.471 10.846 6.996 17.852 9.2.777.244 1.533.461 2.28.665-1.606 9.8-6.701 21.827-17.182 29.809-7.68 5.848-16.133 7.635-26.962 8.137-.001.001-.002 0-.003 0z"/></g></svg>