<svg id="Capa_1" enable-background="new 0 0 512.001 512.001" height="512" viewBox="0 0 512.001 512.001" width="512" xmlns="http://www.w3.org/2000/svg"><g><path d="m196.703 463.927h-25.199l12.599-21.822c2.071-3.587.842-8.174-2.745-10.245-3.589-2.07-8.175-.844-10.245 2.745l-12.6 21.823-12.6-21.823c-2.071-3.588-6.66-4.814-10.245-2.745-3.587 2.071-4.816 6.658-2.745 10.245l12.599 21.822h-25.199c-4.143 0-7.5 3.357-7.5 7.5s3.357 7.5 7.5 7.5h25.199l-12.6 21.823c-2.071 3.587-.842 8.174 2.745 10.245 1.182.682 2.471 1.006 3.743 1.006 2.592 0 5.113-1.345 6.502-3.751l12.6-21.823 12.6 21.823c1.39 2.406 3.91 3.751 6.502 3.751 1.272 0 2.563-.324 3.743-1.006 3.587-2.071 4.816-6.658 2.745-10.245l-12.6-21.823h25.199c4.143 0 7.5-3.357 7.5-7.5s-3.356-7.5-7.498-7.5zm59.662-157.5c0-4.143-3.357-7.5-7.5-7.5h-25.198l12.599-21.822c2.071-3.587.842-8.174-2.745-10.245-3.589-2.071-8.175-.843-10.245 2.745l-12.6 21.823-12.6-21.823c-2.071-3.588-6.66-4.815-10.245-2.745-3.587 2.071-4.816 6.658-2.745 10.245l12.599 21.822h-25.199c-4.143 0-7.5 3.357-7.5 7.5s3.357 7.5 7.5 7.5h25.199l-12.6 21.823c-2.071 3.587-.842 8.174 2.745 10.245 1.182.682 2.471 1.006 3.743 1.006 2.592 0 5.113-1.345 6.502-3.751l12.6-21.823 12.6 21.823c1.39 2.406 3.91 3.751 6.502 3.751 1.272 0 2.563-.324 3.743-1.006 3.587-2.071 4.816-6.658 2.745-10.245l-12.6-21.823h25.198c4.144 0 7.502-3.358 7.502-7.5zm73.101-260.36c4.143 0 7.5-3.358 7.5-7.5v-31.067c0-4.142-3.357-7.5-7.5-7.5s-7.5 3.358-7.5 7.5v31.067c0 4.142 3.358 7.5 7.5 7.5zm6.14 377.602h-25.199l12.6-21.823c2.071-3.587.842-8.174-2.745-10.245-3.59-2.07-8.176-.843-10.245 2.745l-12.6 21.823-12.6-21.823c-2.07-3.588-6.659-4.814-10.245-2.745-3.587 2.071-4.816 6.658-2.745 10.245l12.6 21.823h-25.199c-4.143 0-7.5 3.357-7.5 7.5s3.357 7.5 7.5 7.5h25.199l-12.6 21.823c-2.071 3.587-.842 8.174 2.745 10.245 1.182.682 2.471 1.006 3.743 1.006 2.592 0 5.113-1.345 6.502-3.751l12.6-21.823 12.6 21.823c1.389 2.406 3.91 3.751 6.502 3.751 1.272 0 2.563-.324 3.743-1.006 3.587-2.071 4.816-6.658 2.745-10.245l-12.6-21.823h25.199c4.143 0 7.5-3.357 7.5-7.5s-3.357-7.5-7.5-7.5zm-101.222-342.611c1.465 1.464 3.385 2.197 5.304 2.197s3.839-.732 5.304-2.197c2.929-2.929 2.929-7.678 0-10.606l-21.968-21.968c-2.93-2.929-7.678-2.929-10.607 0s-2.929 7.678 0 10.606zm201.526-32.574-21.968 21.968c-2.929 2.929-2.929 7.678 0 10.606 1.465 1.464 3.385 2.197 5.304 2.197s3.839-.732 5.304-2.197l21.968-21.968c2.929-2.929 2.929-7.678 0-10.606-2.931-2.929-7.679-2.929-10.608 0zm51.59 109.55h-31.067c-4.143 0-7.5 3.358-7.5 7.5s3.357 7.5 7.5 7.5h31.067c4.143 0 7.5-3.358 7.5-7.5s-3.357-7.5-7.5-7.5zm-62.951 91.975c-2.93-2.929-7.678-2.929-10.607 0s-2.929 7.677 0 10.607l21.968 21.968c1.465 1.464 3.385 2.196 5.304 2.196s3.839-.732 5.304-2.196c2.929-2.93 2.929-7.678 0-10.607zm-5.725-41.065c7.566-14.373 11.566-30.609 11.566-46.954 0-55.649-45.274-100.923-100.924-100.923-40.143 0-76.098 23.694-92.185 59.819-16.875-9.383-35.581-14.311-54.737-14.311-27.572 0-54.522 10.401-75.888 29.287-20.675 18.276-35.367 43.759-41.44 71.84-28.44 8.406-48.216 36.433-48.216 68.531 0 39.177 29.383 71.049 65.5 71.049 10.708 0 21.347-2.877 30.767-8.32 3.586-2.073 4.813-6.66 2.741-10.247-2.072-3.586-6.662-4.812-10.247-2.741-7.243 4.187-15.069 6.309-23.261 6.309-27.846 0-50.5-25.144-50.5-56.049 0-25.747 15.706-48.099 38.193-54.355 4.833-1.344 8.477-5.246 9.508-10.182 5.291-25.305 18.393-48.245 36.89-64.596 18.891-16.699 41.697-25.525 65.953-25.525 41.133.088 77.236 25.919 94.522 64.553 1.513 3.348 4.371 5.964 7.844 7.178 3.449 1.207 7.283.945 10.521-.716 8.735-4.482 18.07-6.755 27.745-6.755 36.489 0 66.175 32.848 66.175 73.224s-29.686 73.224-66.175 73.224c-4.143 0-7.5 3.357-7.5 7.5s3.357 7.5 7.5 7.5c44.76 0 81.175-39.577 81.175-88.224s-36.415-88.224-81.175-88.224c-11.531 0-22.66 2.578-33.106 7.666-9.271-19.891-23.04-36.873-39.999-49.389 13.212-31.943 44.439-53.045 79.396-53.045 47.379 0 85.924 38.545 85.924 85.923 0 13.919-3.402 27.739-9.84 39.965-1.93 3.665-.522 8.201 3.143 10.13 1.115.587 2.31.865 3.487.865 2.694.001 5.3-1.456 6.643-4.007z"/></g></svg>