<svg id="tree10" enable-background="new 0 0 300 300" height="512" viewBox="0 0 300 300" width="512" xmlns="http://www.w3.org/2000/svg"><g><path d="m192 234h-36v-8.399l27.653-29.035c2.472 1.422 5.296 2.299 8.347 2.299 9.301 0 16.867-7.566 16.867-16.865s-7.566-16.865-16.867-16.865-16.867 7.566-16.867 16.865c0 3.347 1.009 6.452 2.697 9.078l-21.83 22.921v-32.169l42.613-36.802c1.672-1.443 1.859-3.971.414-5.643-1.449-1.676-3.98-1.852-5.641-.412l-37.386 32.287v-13.26-8h8c13.234 0 24-10.766 24-24v-68c0-13.234-10.766-24-24-24h-24c-13.234 0-24 10.766-24 24v68c0 13.234 10.766 24 24 24h8v8 13.26l-37.387-32.288c-1.664-1.439-4.191-1.264-5.641.412-1.445 1.672-1.258 4.199.414 5.643l42.614 36.803v32.169l-21.83-22.921c1.688-2.626 2.697-5.731 2.697-9.078 0-9.299-7.566-16.865-16.867-16.865s-16.867 7.566-16.867 16.865 7.566 16.865 16.867 16.865c3.051 0 5.875-.877 8.347-2.299l27.653 29.035v8.399h-36c-11.027 0-20 8.973-20 20v8c0 2.209 1.789 4 4 4s4-1.791 4-4v-8c0-6.617 5.383-12 12-12h36v4c0 2.209 1.789 4 4 4s4-1.791 4-4v-4h36c6.617 0 12 5.383 12 12v8c0 2.209 1.789 4 4 4s4-1.791 4-4v-8c0-11.027-8.973-20-20-20zm0-60.865c4.891 0 8.867 3.977 8.867 8.865s-3.977 8.865-8.867 8.865-8.867-3.977-8.867-8.865 3.976-8.865 8.867-8.865zm-88.867 8.865c0-4.889 3.977-8.865 8.867-8.865s8.867 3.977 8.867 8.865-3.977 8.865-8.867 8.865-8.867-3.976-8.867-8.865zm36.867-40c-8.824 0-16-7.178-16-16v-68c0-8.822 7.176-16 16-16h24c8.824 0 16 7.178 16 16v68c0 8.822-7.176 16-16 16h-8v-8.637l19.172-24.923c1.344-1.752 1.02-4.264-.734-5.609-1.75-1.35-4.262-1.023-5.609.73l-12.829 16.678v-18.647-.229l19.172-24.923c1.344-1.752 1.02-4.264-.734-5.609-1.75-1.354-4.262-1.021-5.609.73l-12.829 16.678v-34.239c0-2.209-1.789-4-4-4s-4 1.791-4 4v34.239l-12.828-16.678c-1.352-1.752-3.859-2.082-5.609-.73-1.754 1.346-2.078 3.857-.734 5.609l19.171 24.923v.229 18.647l-12.828-16.678c-1.352-1.75-3.859-2.078-5.609-.73-1.754 1.346-2.078 3.857-.734 5.609l19.171 24.923v8.637z"/><path d="m244 54c2.211 0 4-1.791 4-4v-8c0-2.209-1.789-4-4-4s-4 1.791-4 4v8c0 2.209 1.789 4 4 4z"/><path d="m244 62c-2.211 0-4 1.791-4 4v8c0 2.209 1.789 4 4 4s4-1.791 4-4v-8c0-2.209-1.789-4-4-4z"/><path d="m240 58c0-2.209-1.789-4-4-4h-8c-2.211 0-4 1.791-4 4s1.789 4 4 4h8c2.211 0 4-1.791 4-4z"/><path d="m260 54h-8c-2.211 0-4 1.791-4 4s1.789 4 4 4h8c2.211 0 4-1.791 4-4s-1.789-4-4-4z"/><circle cx="237.771" cy="168.016" r="4.276"/><circle cx="65.771" cy="56.016" r="4.276"/><path d="m50 166c-7.719 0-14 6.281-14 14s6.281 14 14 14 14-6.281 14-14-6.281-14-14-14zm0 20c-3.309 0-6-2.691-6-6s2.691-6 6-6 6 2.691 6 6-2.691 6-6 6z"/></g></svg>