<?xml version="1.0" encoding="utf-8"?>
<!-- Generator: Adobe Illustrator 24.2.3, SVG Export Plug-In . SVG Version: 6.00 Build 0)  -->
<svg version="1.1" id="tree16" xmlns="http://www.w3.org/2000/svg" xmlns:xlink="http://www.w3.org/1999/xlink" x="0px" y="0px"
	 viewBox="0 0 512 512" style="enable-background:new 0 0 512 512;" xml:space="preserve">
<style type="text/css">
	.st0{fill:#FFFFFF;}
</style>
<g>
	<path class="st0" d="M416.4,81.9c3.8,0,6.8-3.1,6.8-6.8V61.4c0-3.8-3.1-6.8-6.8-6.8s-6.8,3.1-6.8,6.8v13.7
		C409.6,78.9,412.7,81.9,416.4,81.9z"/>
	<path class="st0" d="M416.4,95.6c-3.8,0-6.8,3.1-6.8,6.8v13.7c0,3.8,3.1,6.8,6.8,6.8s6.8-3.1,6.8-6.8v-13.7
		C423.3,98.6,420.2,95.6,416.4,95.6z"/>
	<path class="st0" d="M389.1,95.6h13.7c3.8,0,6.8-3.1,6.8-6.8c0-3.8-3.1-6.8-6.8-6.8h-13.7c-3.8,0-6.8,3.1-6.8,6.8
		C382.3,92.5,385.3,95.6,389.1,95.6z"/>
	<path class="st0" d="M443.7,81.9h-13.7c-3.8,0-6.8,3.1-6.8,6.8c0,3.8,3.1,6.8,6.8,6.8h13.7c3.8,0,6.8-3.1,6.8-6.8
		C450.6,85,447.5,81.9,443.7,81.9z"/>
	<circle class="st0" cx="419.4" cy="344.8" r="7.3"/>
	<circle class="st0" cx="84.9" cy="92.2" r="7.3"/>
	<path class="st0" d="M85.3,307.2c-13.2,0-23.9,10.7-23.9,23.9c0,13.2,10.7,23.9,23.9,23.9s23.9-10.7,23.9-23.9
		C109.2,317.9,98.5,307.2,85.3,307.2z M85.3,341.3c-5.6,0-10.2-4.6-10.2-10.2s4.6-10.2,10.2-10.2s10.2,4.6,10.2,10.2
		S91,341.3,85.3,341.3z"/>
	<path class="st0" d="M338.3,346c5.3,1.3,10.9,2.1,16.6,2.1c37.6,0,68.3-30.6,68.3-68.3s-30.6-68.3-68.3-68.3s-68.3,30.6-68.3,68.3
		c0,26.7,15.5,49.8,37.9,61c-15.3,16.7-36.1,26.6-58.3,27.5V224.9c45.7-3.5,81.9-41.8,81.9-88.4c0-48.9-39.8-88.7-88.7-88.7
		c-48.9,0-88.7,39.8-88.7,88.7c0,46.6,36.2,84.9,81.9,88.4v116.2c-21.8-1.8-44.1-20-60.9-49.8c12-8.7,19.9-22.8,19.9-38.7
		c0-26.3-21.4-47.8-47.8-47.8s-47.8,21.4-47.8,47.8s21.4,47.8,47.8,47.8c5.5,0,10.8-1,15.8-2.7c19.4,34.5,46.1,55.5,72.9,57.2v54.8
		h-61.4c-18.8,0-34.1,15.3-34.1,34.1v13.7c0,3.8,3.1,6.8,6.8,6.8c3.8,0,6.8-3.1,6.8-6.8v-13.7c0-11.3,9.2-20.5,20.5-20.5h61.4v6.8
		c0,3.8,3.1,6.8,6.8,6.8c3.8,0,6.8-3.1,6.8-6.8v-6.8h61.4c11.3,0,20.5,9.2,20.5,20.5v13.7c0,3.8,3.1,6.8,6.8,6.8s6.8-3.1,6.8-6.8
		v-13.7c0-18.8-15.3-34.1-34.1-34.1h-61.4v-27.5C294.1,381.1,320.2,368.1,338.3,346z M300.4,279.9c0-30.1,24.5-54.6,54.6-54.6
		c30.1,0,54.6,24.5,54.6,54.6c0,6.7-1.3,13.1-3.5,19.1c0-0.7,0.1-1.3,0.1-2c0-17.3-8.7-33.3-23.1-42.8c-3.1-2.1-7.4-1.2-9.5,2
		c-2.1,3.2-1.2,7.4,2,9.5c10.6,7,17,18.7,17,31.4c0,19.4-14.8,35.4-33.7,37.4c-1.3,0.1-2.5,0.2-3.8,0.2
		C324.9,334.5,300.4,310,300.4,279.9L300.4,279.9z M129.7,252.6c0-5.4,1.4-10.4,3.6-15c1.1,16,14.3,28.6,30.5,28.6
		c3.8,0,6.8-3.1,6.8-6.8c0-3.8-3.1-6.8-6.8-6.8c-9.4,0-17.1-7.7-17.1-17.1s7.7-17.1,17.1-17.1c18.8,0,34.1,15.3,34.1,34.1
		s-15.3,34.1-34.1,34.1S129.7,271.4,129.7,252.6z M184.3,136.5c0-41.4,33.7-75.1,75.1-75.1s75.1,33.7,75.1,75.1
		s-33.7,75.1-75.1,75.1c-1.4,0-2.8-0.1-4.2-0.2c-20.6-2.1-36.8-19.6-36.8-40.7c0-22.6,18.4-41,41-41c18.5,0,34.8,12.5,39.6,30.3
		c1,3.6,4.7,5.8,8.4,4.8c3.6-1,5.8-4.7,4.8-8.4c-6.4-23.8-28.1-40.5-52.8-40.5c-30.1,0-54.6,24.5-54.6,54.6c0,7.7,1.6,15,4.5,21.6
		C194,178.5,184.3,158.7,184.3,136.5z"/>
</g>
</svg>
