<svg id="tree16" enable-background="new 0 0 300 300" height="512" viewBox="0 0 300 300" width="512" xmlns="http://www.w3.org/2000/svg"><g><path d="m244 48c2.211 0 4-1.791 4-4v-8c0-2.209-1.789-4-4-4s-4 1.791-4 4v8c0 2.209 1.789 4 4 4z"/><path d="m244 56c-2.211 0-4 1.791-4 4v8c0 2.209 1.789 4 4 4s4-1.791 4-4v-8c0-2.209-1.789-4-4-4z"/><path d="m228 56h8c2.211 0 4-1.791 4-4s-1.789-4-4-4h-8c-2.211 0-4 1.791-4 4s1.789 4 4 4z"/><path d="m260 48h-8c-2.211 0-4 1.791-4 4s1.789 4 4 4h8c2.211 0 4-1.791 4-4s-1.789-4-4-4z"/><circle cx="245.77" cy="202.016" r="4.276"/><circle cx="49.77" cy="54.016" r="4.276"/><path d="m50 180c-7.719 0-14 6.281-14 14s6.281 14 14 14 14-6.281 14-14-6.281-14-14-14zm0 20c-3.309 0-6-2.691-6-6s2.691-6 6-6 6 2.691 6 6-2.691 6-6 6z"/><path d="m198.248 202.748c3.128.788 6.383 1.252 9.752 1.252 22.055 0 40-17.943 40-40s-17.945-40-40-40-40 17.943-40 40c0 15.649 9.055 29.19 22.181 35.759-8.965 9.8-21.162 15.565-34.181 16.123v-84.085c26.804-2.055 48-24.474 48-51.797 0-28.674-23.328-52-52-52-28.674 0-52 23.326-52 52 0 27.324 21.194 49.742 48 51.797v68.093c-12.779-1.05-25.817-11.727-35.659-29.199 7.047-5.09 11.659-13.353 11.659-22.691 0-15.439-12.561-28-28-28s-28 12.561-28 28 12.561 28 28 28c3.248 0 6.355-.584 9.258-1.606 11.342 20.216 27.012 32.504 42.742 33.503v32.103h-36c-11.027 0-20 8.973-20 20v8c0 2.209 1.791 4 4 4s4-1.791 4-4v-8c0-6.617 5.383-12 12-12h36v4c0 2.209 1.789 4 4 4s4-1.791 4-4v-4h36c6.617 0 12 5.383 12 12v8c0 2.209 1.789 4 4 4s4-1.791 4-4v-8c0-11.027-8.973-20-20-20h-36v-16.117c16.343-.601 31.633-8.181 42.248-21.135zm-22.248-38.748c0-17.645 14.355-32 32-32s32 14.355 32 32c0 3.942-.751 7.704-2.061 11.194.016-.399.061-.791.061-1.194 0-10.143-5.07-19.525-13.559-25.096-1.844-1.215-4.328-.695-5.539 1.148-1.211 1.848-.699 4.328 1.148 5.539 6.231 4.089 9.95 10.97 9.95 18.409 0 11.373-8.676 20.757-19.754 21.886-.745.052-1.488.114-2.246.114-17.645 0-32-14.355-32-32zm-100-16c0-3.166.807-6.122 2.123-8.786.637 9.351 8.367 16.786 17.877 16.786 2.209 0 4-1.791 4-4s-1.791-4-4-4c-5.514 0-10-4.486-10-10s4.486-10 10-10c11.027 0 20 8.973 20 20s-8.973 20-20 20-20-8.973-20-20zm32-68c0-24.262 19.738-44 44-44s44 19.738 44 44-19.738 44-44 44c-.827 0-1.635-.079-2.451-.124-12.088-1.232-21.549-11.469-21.549-23.876 0-13.234 10.766-24 24-24 10.848 0 20.383 7.311 23.188 17.777.57 2.137 2.762 3.41 4.898 2.828 2.133-.57 3.398-2.764 2.828-4.898-3.738-13.959-16.449-23.707-30.914-23.707-17.645 0-32 14.355-32 32 0 4.498.943 8.778 2.625 12.665-8.953-8.06-14.625-19.698-14.625-32.665z"/></g></svg>