<svg id="tree11" enable-background="new 0 0 300 300" height="512" viewBox="0 0 300 300" width="512" xmlns="http://www.w3.org/2000/svg"><g><path d="m244 58c2.211 0 4-1.791 4-4v-8c0-2.209-1.789-4-4-4s-4 1.791-4 4v8c0 2.209 1.789 4 4 4z"/><path d="m244 66c-2.211 0-4 1.791-4 4v8c0 2.209 1.789 4 4 4s4-1.791 4-4v-8c0-2.209-1.789-4-4-4z"/><path d="m240 62c0-2.209-1.789-4-4-4h-8c-2.211 0-4 1.791-4 4s1.789 4 4 4h8c2.211 0 4-1.791 4-4z"/><path d="m260 58h-8c-2.211 0-4 1.791-4 4s1.789 4 4 4h8c2.211 0 4-1.791 4-4s-1.789-4-4-4z"/><path d="m156 144.263 34.314-20.589c2.506 3.803 6.802 6.326 11.686 6.326 7.719 0 14-6.281 14-14s-6.281-14-14-14c-7.622 0-13.815 6.131-13.971 13.716l-32.029 19.218v-15.278l19.923-19.923c2.38 1.405 5.119 2.267 8.077 2.267 8.824 0 16-7.178 16-16s-7.176-16-16-16-16 7.178-16 16c0 2.958.862 5.697 2.267 8.077l-14.267 14.267v-28.688l14.828-14.828c1.562-1.562 1.562-4.094 0-5.656s-4.094-1.562-5.656 0l-9.172 9.172v-6.344c0-.19-.082-.352-.107-.534 6.937-1.751 12.107-7.993 12.107-15.466 0-8.822-7.176-16-16-16s-16 7.178-16 16c0 7.473 5.17 13.715 12.108 15.466-.025.182-.108.345-.108.534v6.344l-9.172-9.172c-1.562-1.562-4.094-1.562-5.656 0s-1.562 4.094 0 5.656l14.828 14.828v28.688l-14.268-14.266c1.406-2.38 2.268-5.119 2.268-8.078 0-8.822-7.176-16-16-16s-16 7.178-16 16 7.176 16 16 16c2.958 0 5.696-.862 8.076-2.266l19.924 19.922v15.278l-32.029-19.218c-.156-7.585-6.349-13.716-13.971-13.716-7.719 0-14 6.281-14 14s6.281 14 14 14c4.884 0 9.18-2.523 11.686-6.326l34.314 20.589v28.081l-14.267-14.267c1.405-2.38 2.267-5.118 2.267-8.077 0-8.822-7.176-16-16-16s-16 7.178-16 16 7.176 16 16 16c2.958 0 5.697-.862 8.077-2.267l19.923 19.923v54.344h-36c-11.027 0-20 8.973-20 20v8c0 2.209 1.789 4 4 4s4-1.791 4-4v-8c0-6.617 5.383-12 12-12h36v4c0 2.209 1.789 4 4 4s4-1.791 4-4v-4h36c6.617 0 12 5.383 12 12v8c0 2.209 1.789 4 4 4s4-1.791 4-4v-8c0-11.027-8.973-20-20-20h-36v-54.344l19.923-19.923c2.38 1.405 5.119 2.267 8.077 2.267 8.824 0 16-7.178 16-16s-7.176-16-16-16-16 7.178-16 16c0 2.958.862 5.697 2.267 8.077l-14.267 14.267zm46-34.263c3.309 0 6 2.691 6 6s-2.691 6-6 6-6-2.691-6-6 2.691-6 6-6zm-18-32c4.41 0 8 3.588 8 8s-3.59 8-8 8-8-3.588-8-8 3.59-8 8-8zm-72 8c0-4.412 3.59-8 8-8s8 3.588 8 8-3.59 8-8 8-8-3.588-8-8zm-10 36c-3.309 0-6-2.691-6-6s2.691-6 6-6 6 2.691 6 6-2.691 6-6 6zm10 28c0-4.412 3.59-8 8-8s8 3.588 8 8-3.59 8-8 8-8-3.588-8-8zm72-8c4.41 0 8 3.588 8 8s-3.59 8-8 8-8-3.588-8-8 3.59-8 8-8zm-40-96c0-4.412 3.59-8 8-8s8 3.588 8 8-3.59 8-8 8-8-3.588-8-8z"/><circle cx="237.771" cy="172.016" r="4.276"/><circle cx="65.771" cy="60.016" r="4.276"/><path d="m50 170c-7.719 0-14 6.281-14 14s6.281 14 14 14 14-6.281 14-14-6.281-14-14-14zm0 20c-3.309 0-6-2.691-6-6s2.691-6 6-6 6 2.691 6 6-2.691 6-6 6z"/></g></svg>